<svg viewBox="0 0 426 40" fill="none" xmlns="http://www.w3.org/2000/svg">
<path fill-rule="evenodd" clip-rule="evenodd" d="M233.015 17.8766C183.78 18.9167 134.544 21.4889 85.5158 25.6771C58.7368 27.9641 27.6354 27.6902 1.65607 35.4851C-0.390511 36.1002 0.017701 37.9734 0.062435 38.158C0.151903 38.5438 0.526557 39.8242 2.16494 39.8857C2.29355 39.8913 3.17148 39.7796 3.51258 39.7349C11.1621 38.7284 18.7893 37.554 26.4444 36.6034C52.8878 33.3099 79.3983 30.8271 105.954 28.6464C141.204 25.7498 176.751 24.2009 212.096 22.9986C231.45 22.3332 251.261 23.2111 270.681 21.8523C277.794 21.8131 284.918 21.8077 292.042 21.83C321.829 21.9363 351.583 23.0658 381.331 24.6147C390.893 25.1124 398.196 25.6492 407.568 26.0127C411.13 26.1525 416.783 26.2475 420.708 26.309C421.279 26.3202 422.71 26.3313 423.331 26.3369C423.415 26.3481 423.499 26.3481 423.582 26.3481C423.884 26.3425 424.035 26.3257 424.063 26.3201C426.194 26.007 425.998 24.0051 425.937 23.692C425.925 23.6249 425.612 21.9306 423.789 21.8691C423.515 21.8579 421.541 21.8468 420.781 21.8356C416.884 21.7741 411.275 21.6791 407.741 21.5449C398.392 21.1814 391.106 20.6446 381.56 20.1469C351.745 18.598 321.919 17.4629 292.059 17.3566C288.569 17.3454 285.086 17.3398 281.608 17.3454C281.35 17.0099 280.953 16.7023 280.322 16.5401C279.746 16.3891 275.608 16.2439 274.008 16.1097C262.456 15.1647 262.797 15.2038 250.081 14.4265C230.823 13.2467 227.893 12.9782 207.869 12.4805C183.36 11.871 158.846 11.7033 134.332 11.6865C169.538 9.98661 204.978 10.2158 240.134 9.7014C256.031 9.47214 271.923 9.05839 287.82 9.18141C293.278 9.22614 298.73 9.42748 304.187 9.49458C305.317 9.51135 308.219 9.70704 308.638 9.61198C310.025 9.30444 310.321 8.26993 310.405 7.76667C310.45 7.4759 310.651 5.75368 308.588 5.14977C299.378 2.46572 282.385 2.57193 273.438 2.04072C223.336 -0.922918 173.133 -0.0953535 123.008 2.02392C102.313 2.89624 81.6854 4.14328 61.0741 6.15631C53.8664 6.85528 46.6418 7.4536 39.462 8.39302C38.2989 8.54399 35.6764 8.76197 34.4071 8.99124C33.7528 9.11426 33.2887 9.29319 33.0706 9.41062C32.0529 9.98657 31.8796 10.8366 31.874 11.4069C31.8684 11.8207 31.9746 13.3696 34.0324 13.7666C54.9623 17.8654 77.732 16.2662 98.7738 16.2103C135.103 16.1208 171.439 16.048 207.757 16.9539C220.042 17.2614 225.869 17.4796 233.015 17.8766ZM243.477 5.17775C203.396 3.93079 163.269 4.79743 123.193 6.49174C102.582 7.36405 82.0377 8.60548 61.5103 10.6073C58.2391 10.9261 54.9735 11.2224 51.7079 11.5411C67.3816 12.6651 83.5363 11.7816 98.7626 11.7369L109.214 11.7145C109.13 11.502 109.074 11.2728 109.057 11.0379C108.962 9.80772 109.885 8.72848 111.115 8.63342C153.903 5.38461 197.194 5.85427 240.072 5.22799C241.207 5.21122 242.342 5.19453 243.477 5.17775Z" fill="url(#paint0_radial_2401_11937)"/>
<path fill-rule="evenodd" clip-rule="evenodd" d="M233.015 17.8766C183.78 18.9167 134.544 21.4889 85.5158 25.6771C58.7368 27.9641 27.6354 27.6902 1.65607 35.4851C-0.390511 36.1002 0.017701 37.9734 0.062435 38.158C0.151903 38.5438 0.526557 39.8242 2.16494 39.8857C2.29355 39.8913 3.17148 39.7796 3.51258 39.7349C11.1621 38.7284 18.7893 37.554 26.4444 36.6034C52.8878 33.3099 79.3983 30.8271 105.954 28.6464C141.204 25.7498 176.751 24.2009 212.096 22.9986C231.45 22.3332 251.261 23.2111 270.681 21.8523C277.794 21.8131 284.918 21.8077 292.042 21.83C321.829 21.9363 351.583 23.0658 381.331 24.6147C390.893 25.1124 398.196 25.6492 407.568 26.0127C411.13 26.1525 416.783 26.2475 420.708 26.309C421.279 26.3202 422.71 26.3313 423.331 26.3369C423.415 26.3481 423.499 26.3481 423.582 26.3481C423.884 26.3425 424.035 26.3257 424.063 26.3201C426.194 26.007 425.998 24.0051 425.937 23.692C425.925 23.6249 425.612 21.9306 423.789 21.8691C423.515 21.8579 421.541 21.8468 420.781 21.8356C416.884 21.7741 411.275 21.6791 407.741 21.5449C398.392 21.1814 391.106 20.6446 381.56 20.1469C351.745 18.598 321.919 17.4629 292.059 17.3566C288.569 17.3454 285.086 17.3398 281.608 17.3454C281.35 17.0099 280.953 16.7023 280.322 16.5401C279.746 16.3891 275.608 16.2439 274.008 16.1097C262.456 15.1647 262.797 15.2038 250.081 14.4265C230.823 13.2467 227.893 12.9782 207.869 12.4805C183.36 11.871 158.846 11.7033 134.332 11.6865C169.538 9.98661 204.978 10.2158 240.134 9.7014C256.031 9.47214 271.923 9.05839 287.82 9.18141C293.278 9.22614 298.73 9.42748 304.187 9.49458C305.317 9.51135 308.219 9.70704 308.638 9.61198C310.025 9.30444 310.321 8.26993 310.405 7.76667C310.45 7.4759 310.651 5.75368 308.588 5.14977C299.378 2.46572 282.385 2.57193 273.438 2.04072C223.336 -0.922918 173.133 -0.0953535 123.008 2.02392C102.313 2.89624 81.6854 4.14328 61.0741 6.15631C53.8664 6.85528 46.6418 7.4536 39.462 8.39302C38.2989 8.54399 35.6764 8.76197 34.4071 8.99124C33.7528 9.11426 33.2887 9.29319 33.0706 9.41062C32.0529 9.98657 31.8796 10.8366 31.874 11.4069C31.8684 11.8207 31.9746 13.3696 34.0324 13.7666C54.9623 17.8654 77.732 16.2662 98.7738 16.2103C135.103 16.1208 171.439 16.048 207.757 16.9539C220.042 17.2614 225.869 17.4796 233.015 17.8766ZM243.477 5.17775C203.396 3.93079 163.269 4.79743 123.193 6.49174C102.582 7.36405 82.0377 8.60548 61.5103 10.6073C58.2391 10.9261 54.9735 11.2224 51.7079 11.5411C67.3816 12.6651 83.5363 11.7816 98.7626 11.7369L109.214 11.7145C109.13 11.502 109.074 11.2728 109.057 11.0379C108.962 9.80772 109.885 8.72848 111.115 8.63342C153.903 5.38461 197.194 5.85427 240.072 5.22799C241.207 5.21122 242.342 5.19453 243.477 5.17775Z" fill="url(#paint1_radial_2401_11937)"/>
<path fill-rule="evenodd" clip-rule="evenodd" d="M233.015 17.8766C183.78 18.9167 134.544 21.4889 85.5158 25.6771C58.7368 27.9641 27.6354 27.6902 1.65607 35.4851C-0.390511 36.1002 0.017701 37.9734 0.062435 38.158C0.151903 38.5438 0.526557 39.8242 2.16494 39.8857C2.29355 39.8913 3.17148 39.7796 3.51258 39.7349C11.1621 38.7284 18.7893 37.554 26.4444 36.6034C52.8878 33.3099 79.3983 30.8271 105.954 28.6464C141.204 25.7498 176.751 24.2009 212.096 22.9986C231.45 22.3332 251.261 23.2111 270.681 21.8523C277.794 21.8131 284.918 21.8077 292.042 21.83C321.829 21.9363 351.583 23.0658 381.331 24.6147C390.893 25.1124 398.196 25.6492 407.568 26.0127C411.13 26.1525 416.783 26.2475 420.708 26.309C421.279 26.3202 422.71 26.3313 423.331 26.3369C423.415 26.3481 423.499 26.3481 423.582 26.3481C423.884 26.3425 424.035 26.3257 424.063 26.3201C426.194 26.007 425.998 24.0051 425.937 23.692C425.925 23.6249 425.612 21.9306 423.789 21.8691C423.515 21.8579 421.541 21.8468 420.781 21.8356C416.884 21.7741 411.275 21.6791 407.741 21.5449C398.392 21.1814 391.106 20.6446 381.56 20.1469C351.745 18.598 321.919 17.4629 292.059 17.3566C288.569 17.3454 285.086 17.3398 281.608 17.3454C281.35 17.0099 280.953 16.7023 280.322 16.5401C279.746 16.3891 275.608 16.2439 274.008 16.1097C262.456 15.1647 262.797 15.2038 250.081 14.4265C230.823 13.2467 227.893 12.9782 207.869 12.4805C183.36 11.871 158.846 11.7033 134.332 11.6865C169.538 9.98661 204.978 10.2158 240.134 9.7014C256.031 9.47214 271.923 9.05839 287.82 9.18141C293.278 9.22614 298.73 9.42748 304.187 9.49458C305.317 9.51135 308.219 9.70704 308.638 9.61198C310.025 9.30444 310.321 8.26993 310.405 7.76667C310.45 7.4759 310.651 5.75368 308.588 5.14977C299.378 2.46572 282.385 2.57193 273.438 2.04072C223.336 -0.922918 173.133 -0.0953535 123.008 2.02392C102.313 2.89624 81.6854 4.14328 61.0741 6.15631C53.8664 6.85528 46.6418 7.4536 39.462 8.39302C38.2989 8.54399 35.6764 8.76197 34.4071 8.99124C33.7528 9.11426 33.2887 9.29319 33.0706 9.41062C32.0529 9.98657 31.8796 10.8366 31.874 11.4069C31.8684 11.8207 31.9746 13.3696 34.0324 13.7666C54.9623 17.8654 77.732 16.2662 98.7738 16.2103C135.103 16.1208 171.439 16.048 207.757 16.9539C220.042 17.2614 225.869 17.4796 233.015 17.8766ZM243.477 5.17775C203.396 3.93079 163.269 4.79743 123.193 6.49174C102.582 7.36405 82.0377 8.60548 61.5103 10.6073C58.2391 10.9261 54.9735 11.2224 51.7079 11.5411C67.3816 12.6651 83.5363 11.7816 98.7626 11.7369L109.214 11.7145C109.13 11.502 109.074 11.2728 109.057 11.0379C108.962 9.80772 109.885 8.72848 111.115 8.63342C153.903 5.38461 197.194 5.85427 240.072 5.22799C241.207 5.21122 242.342 5.19453 243.477 5.17775Z" fill="url(#paint2_radial_2401_11937)"/>
<defs>
<radialGradient id="paint0_radial_2401_11937" cx="0" cy="0" r="1" gradientUnits="userSpaceOnUse" gradientTransform="translate(184.919 24.2015) rotate(-6.94873) scale(311.64 136.759)">
<stop offset="0.215741" stop-color="#6504B1"/>
<stop offset="1" stop-color="#4604B1" stop-opacity="0.01"/>
</radialGradient>
<radialGradient id="paint1_radial_2401_11937" cx="0" cy="0" r="1" gradientUnits="userSpaceOnUse" gradientTransform="translate(76.5945 1.75693) rotate(9.19921) scale(195.032 78.5705)">
<stop offset="0.192723" stop-color="#C40909"/>
<stop offset="1" stop-color="#F9434C" stop-opacity="0.01"/>
</radialGradient>
<radialGradient id="paint2_radial_2401_11937" cx="0" cy="0" r="1" gradientUnits="userSpaceOnUse" gradientTransform="translate(407.375 36.411) rotate(10.8261) scale(97.1262 33.2571)">
<stop offset="0.0508194" stop-color="#1B00BF"/>
<stop offset="1" stop-color="#0075FF" stop-opacity="0.01"/>
</radialGradient>
</defs>
</svg>
