<svg width="516" height="614" viewBox="0 0 516 614" fill="none" xmlns="http://www.w3.org/2000/svg">
<g id="Group 1597880394">
<rect id="izquierda" width="320" height="429" fill="#D9D9D9"/>
<rect id="derecha" x="196" y="185" width="320" height="429" fill="#F56D6D"/>
<g id="arriba">
<path id="Vector 1" d="M185.672 292.415V478.238C185.672 478.238 150.472 473.858 115.561 452.33C99.754 442.583 77 416.657 77 370.2V292.415C77 262.183 98.0333 231.917 133.089 231.915C175.303 231.911 185.672 270.831 185.672 292.415Z" fill="#7B7B7B"/>
<circle id="Ellipse 102" cx="131.336" cy="170.336" r="54.336" fill="#7B7B7B"/>
</g>
<g id="abajo">
<path id="Vector 1_2" d="M211.786 301.825L211.786 116.002C211.786 116.002 246.986 120.381 281.897 141.91C297.704 151.657 320.458 177.583 320.458 224.04L320.458 301.825C320.458 332.057 299.425 362.323 264.369 362.325C222.155 362.328 211.786 323.408 211.786 301.825Z" fill="#7B7B7B"/>
<circle id="Ellipse 102_2" cx="266.122" cy="423.904" r="54.336" transform="rotate(-180 266.122 423.904)" fill="#7B7B7B"/>
</g>
</g>
</svg>