<svg width="82" height="79" viewBox="0 0 82 79" fill="none" xmlns="http://www.w3.org/2000/svg">
<path fill-rule="evenodd" clip-rule="evenodd" d="M11.5131 39.7628C11.0834 33.9311 9.8274 28.117 8.5686 22.4917C8.29353 21.2815 7.10128 20.4969 5.93971 20.8236C4.74738 21.0678 4.01116 22.2703 4.25631 23.3977C5.48089 28.8484 6.71884 34.4807 7.11426 40.0443C7.19313 41.2319 8.25092 42.1594 9.46919 42.0929C10.6866 42.0266 11.5912 40.9507 11.5131 39.7628Z" fill="url(#paint0_radial_2790_3929)"/>
<path fill-rule="evenodd" clip-rule="evenodd" d="M11.5131 39.7628C11.0834 33.9311 9.8274 28.117 8.5686 22.4917C8.29353 21.2815 7.10128 20.4969 5.93971 20.8236C4.74738 21.0678 4.01116 22.2703 4.25631 23.3977C5.48089 28.8484 6.71884 34.4807 7.11426 40.0443C7.19313 41.2319 8.25092 42.1594 9.46919 42.0929C10.6866 42.0266 11.5912 40.9507 11.5131 39.7628Z" fill="url(#paint1_radial_2790_3929)"/>
<path fill-rule="evenodd" clip-rule="evenodd" d="M11.5131 39.7628C11.0834 33.9311 9.8274 28.117 8.5686 22.4917C8.29353 21.2815 7.10128 20.4969 5.93971 20.8236C4.74738 21.0678 4.01116 22.2703 4.25631 23.3977C5.48089 28.8484 6.71884 34.4807 7.11426 40.0443C7.19313 41.2319 8.25092 42.1594 9.46919 42.0929C10.6866 42.0266 11.5912 40.9507 11.5131 39.7628Z" fill="url(#paint2_radial_2790_3929)"/>
<path fill-rule="evenodd" clip-rule="evenodd" d="M38.3827 48.1891C43.995 36.5228 48.0989 24.1861 54.0043 12.6009C54.5687 11.5547 54.1346 10.215 53.0568 9.66941C51.9783 9.12412 50.6382 9.5158 50.1036 10.6447C44.1726 22.2392 40.0439 34.5849 34.406 46.2604C33.8913 47.3821 34.3585 48.7096 35.4585 49.2471C36.5278 49.7022 37.868 49.3108 38.3827 48.1891Z" fill="url(#paint3_radial_2790_3929)"/>
<path fill-rule="evenodd" clip-rule="evenodd" d="M38.3827 48.1891C43.995 36.5228 48.0989 24.1861 54.0043 12.6009C54.5687 11.5547 54.1346 10.215 53.0568 9.66941C51.9783 9.12412 50.6382 9.5158 50.1036 10.6447C44.1726 22.2392 40.0439 34.5849 34.406 46.2604C33.8913 47.3821 34.3585 48.7096 35.4585 49.2471C36.5278 49.7022 37.868 49.3108 38.3827 48.1891Z" fill="url(#paint4_radial_2790_3929)"/>
<path fill-rule="evenodd" clip-rule="evenodd" d="M38.3827 48.1891C43.995 36.5228 48.0989 24.1861 54.0043 12.6009C54.5687 11.5547 54.1346 10.215 53.0568 9.66941C51.9783 9.12412 50.6382 9.5158 50.1036 10.6447C44.1726 22.2392 40.0439 34.5849 34.406 46.2604C33.8913 47.3821 34.3585 48.7096 35.4585 49.2471C36.5278 49.7022 37.868 49.3108 38.3827 48.1891Z" fill="url(#paint5_radial_2790_3929)"/>
<path fill-rule="evenodd" clip-rule="evenodd" d="M77.6033 52.0558C72.7165 54.1045 67.8296 56.1527 62.9419 58.2017C61.802 58.6142 61.2812 59.9258 61.7556 61.0638C62.2309 62.2016 63.5003 62.6773 64.6411 62.2645C69.5361 60.2128 74.4305 58.1619 79.3248 56.1105C80.4348 55.6154 80.9499 54.3062 80.4689 53.1705C80.0177 52.1176 78.7125 51.561 77.6033 52.0558Z" fill="url(#paint6_radial_2790_3929)"/>
<path fill-rule="evenodd" clip-rule="evenodd" d="M77.6033 52.0558C72.7165 54.1045 67.8296 56.1527 62.9419 58.2017C61.802 58.6142 61.2812 59.9258 61.7556 61.0638C62.2309 62.2016 63.5003 62.6773 64.6411 62.2645C69.5361 60.2128 74.4305 58.1619 79.3248 56.1105C80.4348 55.6154 80.9499 54.3062 80.4689 53.1705C80.0177 52.1176 78.7125 51.561 77.6033 52.0558Z" fill="url(#paint7_radial_2790_3929)"/>
<path fill-rule="evenodd" clip-rule="evenodd" d="M77.6033 52.0558C72.7165 54.1045 67.8296 56.1527 62.9419 58.2017C61.802 58.6142 61.2812 59.9258 61.7556 61.0638C62.2309 62.2016 63.5003 62.6773 64.6411 62.2645C69.5361 60.2128 74.4305 58.1619 79.3248 56.1105C80.4348 55.6154 80.9499 54.3062 80.4689 53.1705C80.0177 52.1176 78.7125 51.561 77.6033 52.0558Z" fill="url(#paint8_radial_2790_3929)"/>
<defs>
<radialGradient id="paint0_radial_2790_3929" cx="0" cy="0" r="1" gradientUnits="userSpaceOnUse" gradientTransform="translate(6.65036 30.3826) rotate(45.6129) scale(17.0106 23.4538)">
<stop offset="0.215741" stop-color="#6504B1"/>
<stop offset="1" stop-color="#4604B1" stop-opacity="0.01"/>
</radialGradient>
<radialGradient id="paint1_radial_2790_3929" cx="0" cy="0" r="1" gradientUnits="userSpaceOnUse" gradientTransform="translate(8.75465 23.857) rotate(101.304) scale(11.2618 12.7374)">
<stop offset="0.192723" stop-color="#C40909"/>
<stop offset="1" stop-color="#F9434C" stop-opacity="0.01"/>
</radialGradient>
<radialGradient id="paint2_radial_2790_3929" cx="0" cy="0" r="1" gradientUnits="userSpaceOnUse" gradientTransform="translate(8.28958 41.627) rotate(105.673) scale(5.86808 5.15286)">
<stop offset="0.0508194" stop-color="#1B00BF"/>
<stop offset="1" stop-color="#0075FF" stop-opacity="0.01"/>
</radialGradient>
<radialGradient id="paint3_radial_2790_3929" cx="0" cy="0" r="1" gradientUnits="userSpaceOnUse" gradientTransform="translate(40.3929 28.5335) rotate(18.721) scale(37.8942 67.5211)">
<stop offset="0.215741" stop-color="#6504B1"/>
<stop offset="1" stop-color="#4604B1" stop-opacity="0.01"/>
</radialGradient>
<radialGradient id="paint4_radial_2790_3929" cx="0" cy="0" r="1" gradientUnits="userSpaceOnUse" gradientTransform="translate(54.1515 14.7498) rotate(129.104) scale(28.5694 32.2009)">
<stop offset="0.192723" stop-color="#C40909"/>
<stop offset="1" stop-color="#F9434C" stop-opacity="0.01"/>
</radialGradient>
<radialGradient id="paint5_radial_2790_3929" cx="0" cy="0" r="1" gradientUnits="userSpaceOnUse" gradientTransform="translate(37.1614 47.7863) rotate(133.135) scale(16.0767 12.0622)">
<stop offset="0.0508194" stop-color="#1B00BF"/>
<stop offset="1" stop-color="#0075FF" stop-opacity="0.01"/>
</radialGradient>
<radialGradient id="paint6_radial_2790_3929" cx="0" cy="0" r="1" gradientUnits="userSpaceOnUse" gradientTransform="translate(68.9947 57.5629) rotate(-8.79137) scale(19.5994 13.5291)">
<stop offset="0.215741" stop-color="#6504B1"/>
<stop offset="1" stop-color="#4604B1" stop-opacity="0.01"/>
</radialGradient>
<radialGradient id="paint7_radial_2790_3929" cx="0" cy="0" r="1" gradientUnits="userSpaceOnUse" gradientTransform="translate(79.3116 52.4253) rotate(151.712) scale(16.0775 5.9299)">
<stop offset="0.192723" stop-color="#C40909"/>
<stop offset="1" stop-color="#F9434C" stop-opacity="0.01"/>
</radialGradient>
<radialGradient id="paint8_radial_2790_3929" cx="0" cy="0" r="1" gradientUnits="userSpaceOnUse" gradientTransform="translate(64.061 62.2332) rotate(152.983) scale(9.37866 2.1428)">
<stop offset="0.0508194" stop-color="#1B00BF"/>
<stop offset="1" stop-color="#0075FF" stop-opacity="0.01"/>
</radialGradient>
</defs>
</svg>