<svg viewBox="0 0 33 36" fill="none" xmlns="http://www.w3.org/2000/svg">
<path d="M23.579 12.1171C22.8458 12.0637 22.06 12.2267 20.8542 12.6553C20.9549 12.6192 19.7041 13.0737 19.3523 13.1892C18.5742 13.4417 17.9341 13.5802 17.2165 13.5802C16.5066 13.5802 15.8526 13.4475 15.1009 13.2123C14.8376 13.1287 14.5767 13.0393 14.3181 12.9439L13.6222 12.6885C12.6179 12.322 12.0537 12.1834 11.5841 12.195C9.79701 12.2152 8.10759 13.1762 7.12494 14.7663C5.12243 18.0028 6.23218 23.8553 9.15999 27.7974C10.7177 29.881 11.5717 30.6255 11.9142 30.6154C12.2583 30.601 12.5125 30.5332 13.1294 30.2908L13.3866 30.1883C14.9459 29.5693 16.037 29.2966 17.6815 29.2966C19.264 29.2966 20.321 29.565 21.8182 30.1652L22.0786 30.2691C22.6939 30.5144 22.9156 30.5692 23.3062 30.5606C23.8595 30.5534 24.543 29.9589 26.0604 27.8854C26.4758 27.3212 26.8431 26.7267 27.1608 26.125C26.9522 25.9652 26.7501 25.7982 26.5548 25.6243C24.5554 23.8524 23.3201 21.4629 23.286 18.5107C23.2537 16.3262 24.0254 14.1973 25.473 12.4778C24.8656 12.2685 24.2274 12.1468 23.5805 12.1171M23.8207 9.23987C24.9181 9.30913 28.0613 9.6208 30.1072 12.4085C29.9399 12.4951 26.3502 14.4344 26.3874 18.4862C26.4432 23.3344 30.9442 24.9447 31 24.962C30.9628 25.0832 30.2746 27.2649 28.6193 29.5159C27.1872 31.4725 25.6993 33.4118 23.3558 33.4464C21.0495 33.4984 20.3055 32.1824 17.683 32.1824C15.042 32.1824 14.2236 33.4118 12.0475 33.4984C9.77841 33.5677 8.06729 31.3859 6.61656 29.4466C3.6593 25.4642 1.40881 18.2264 4.44047 13.3262C5.947 10.8848 8.62527 9.34376 11.5453 9.30913C13.7586 9.25719 15.8603 10.6943 17.2181 10.6943C18.5572 10.6943 20.9565 9.03209 23.8207 9.23987ZM22.0538 6.60797C20.8449 7.95855 18.8734 9.01477 16.9577 8.87625C16.6973 7.04085 17.6644 5.11887 18.7804 3.92412C20.0265 2.57354 22.1096 1.56926 23.8393 1.5C24.0625 3.37004 23.2628 5.25739 22.0538 6.60797Z" fill="currentColor"/>
</svg>
