<svg viewBox="0 0 30 30" fill="none" xmlns="http://www.w3.org/2000/svg">
<path d="M13.75 2.5V10.5175C12.0191 10.1963 10.2313 10.4163 8.63005 11.1477C7.02876 11.8791 5.69183 13.0863 4.80132 14.6049C3.91081 16.1234 3.51001 17.8796 3.6535 19.6342C3.79699 21.3887 4.4778 23.0564 5.60321 24.4101C6.72862 25.7638 8.24392 26.7377 9.94277 27.1993C11.6416 27.6608 13.4414 27.5874 15.0971 26.9892C16.7528 26.391 18.1838 25.297 19.1953 23.8563C20.2069 22.4155 20.7497 20.6979 20.75 18.9375V14.2675C22.0937 14.839 23.5398 15.1308 25 15.125H26.25V8.125H25C22.6213 8.125 20.75 6.20375 20.75 3.75V2.5H13.75ZM16.25 5H18.36C18.8525 7.775 20.96 9.995 23.75 10.5125V12.535C22.4525 12.345 21.2813 11.8575 20.1963 11.1312L18.25 9.82875V18.9375C18.2499 20.1498 17.8863 21.3343 17.2062 22.3379C16.5261 23.3415 15.5607 24.1182 14.4347 24.5676C13.3088 25.0169 12.0739 25.1184 10.8897 24.8589C9.70543 24.5994 8.62621 23.9907 7.79138 23.1116C6.95655 22.2325 6.40447 21.1233 6.20644 19.9272C6.0084 18.7312 6.17351 17.5032 6.68044 16.402C7.18737 15.3007 8.01284 14.3767 9.05023 13.7493C10.0876 13.1219 11.2893 12.82 12.5 12.8825V14.8875C11.6856 14.8247 10.8712 15.0088 10.163 15.4159C9.4548 15.8229 8.88578 16.434 8.53018 17.1694C8.17458 17.9047 8.04891 18.7302 8.16958 19.5381C8.29024 20.346 8.65164 21.0987 9.2066 21.6981C9.76157 22.2974 10.4843 22.7156 11.2805 22.8979C12.0767 23.0803 12.9094 23.0184 13.6699 22.7203C14.4305 22.4223 15.0834 21.9019 15.5437 21.227C16.004 20.5522 16.2501 19.7543 16.25 18.9375V5ZM10.625 18.9375C10.625 18.5231 10.7896 18.1257 11.0827 17.8326C11.3757 17.5396 11.7731 17.375 12.1875 17.375C12.6019 17.375 12.9993 17.5396 13.2924 17.8326C13.5854 18.1257 13.75 18.5231 13.75 18.9375C13.75 19.3519 13.5854 19.7493 13.2924 20.0424C12.9993 20.3354 12.6019 20.5 12.1875 20.5C11.7731 20.5 11.3757 20.3354 11.0827 20.0424C10.7896 19.7493 10.625 19.3519 10.625 18.9375Z" fill="#84848A"/>
</svg>
