<svg width="33" height="34" viewBox="0 0 30 31" fill="none" xmlns="http://www.w3.org/2000/svg">
<path d="M22.9936 19.3781C22.6423 19.1977 20.8924 18.3404 20.5669 18.2244C20.2415 18.102 20.003 18.0439 19.7677 18.4049C19.5292 18.7626 18.8525 19.5586 18.6398 19.8003C18.4335 20.0388 18.2241 20.0678 17.8728 19.8905C15.7845 18.8464 14.4149 18.0278 13.0388 15.6656C12.6747 15.0372 13.403 15.0823 14.083 13.7256C14.199 13.4871 14.141 13.2841 14.0507 13.1036C13.9605 12.9231 13.2515 11.1765 12.955 10.4643C12.6682 9.77139 12.3717 9.86807 12.1558 9.85518C11.9496 9.84228 11.7143 9.84229 11.4758 9.84229C11.2374 9.84229 10.8539 9.93252 10.5284 10.2838C10.2029 10.6415 9.28442 11.502 9.28442 13.2486C9.28442 14.9953 10.5574 16.6872 10.7314 16.9257C10.9119 17.1642 13.2354 20.7478 16.8029 22.2914C19.0587 23.2646 19.9417 23.3484 21.0697 23.1809C21.7561 23.0777 23.1708 22.3236 23.4641 21.489C23.7574 20.6575 23.7574 19.9453 23.6704 19.7971C23.5833 19.6392 23.3449 19.5489 22.9936 19.3781Z" fill="black"/>
<path d="M29.816 10.9509C29.0876 9.22031 28.0435 7.66699 26.7125 6.33281C25.3816 5.00186 23.8283 3.95449 22.0945 3.22939C20.322 2.48496 18.44 2.10791 16.4999 2.10791H16.4355C14.4826 2.11758 12.5909 2.5043 10.812 3.26484C9.09427 3.99961 7.55384 5.04375 6.23578 6.37471C4.91771 7.70566 3.88324 9.25254 3.16781 10.9767C2.4266 12.762 2.05277 14.6602 2.06244 16.6131C2.07211 18.8496 2.60707 21.07 3.60931 23.0552V27.9536C3.60931 28.7722 4.27318 29.436 5.09174 29.436H9.9934C11.9786 30.4383 14.199 30.9732 16.4355 30.9829H16.5032C18.4335 30.9829 20.3059 30.6091 22.0687 29.8775C23.7928 29.1589 25.3429 28.1276 26.6706 26.8096C28.0016 25.4915 29.049 23.9511 29.7805 22.2334C30.5411 20.4545 30.9278 18.5628 30.9374 16.6099C30.9471 14.6473 30.5668 12.7427 29.816 10.9509ZM24.9465 25.0661C22.6874 27.3026 19.6904 28.5337 16.4999 28.5337H16.4452C14.5019 28.524 12.5715 28.0406 10.8667 27.1318L10.596 26.9868H6.05853V22.4493L5.91351 22.1786C5.00472 20.4738 4.52133 18.5435 4.51166 16.6002C4.49877 13.3872 5.7266 10.3708 7.97924 8.09883C10.2287 5.82686 13.2354 4.57002 16.4484 4.55713H16.5032C18.1145 4.55713 19.6775 4.86973 21.1502 5.48848C22.5875 6.09111 23.8766 6.95801 24.9852 8.0666C26.0906 9.17197 26.9607 10.4643 27.5633 11.9016C28.1885 13.3904 28.5011 14.9695 28.4947 16.6002C28.4753 19.81 27.2153 22.8167 24.9465 25.0661Z" fill="black"/>
</svg>
