<svg width="30" height="31" viewBox="0 0 30 31" fill="none" xmlns="http://www.w3.org/2000/svg">
<path d="M6.91503 7.00875C10.3792 6.83625 13.0738 6.75 14.9988 6.75C16.9238 6.75 19.6194 6.83646 23.0857 7.00937C23.9927 7.05465 24.8525 7.42754 25.5054 8.05882C26.1583 8.6901 26.5599 9.53687 26.6357 10.4419C26.7944 12.3377 26.8738 14.0079 26.8738 15.4525C26.8738 16.9142 26.7925 18.6075 26.63 20.5325C26.5546 21.4271 26.1607 22.265 25.5199 22.8938C24.8791 23.5227 24.034 23.9008 23.1382 23.9594C20.1752 24.1531 17.4621 24.25 14.9988 24.25C12.5363 24.25 9.8242 24.1531 6.86253 23.9594C5.96695 23.9008 5.12207 23.523 4.48134 22.8945C3.84061 22.2661 3.44652 21.4287 3.37065 20.5344C3.20607 18.5948 3.12378 16.9008 3.12378 15.4525C3.12378 14.0212 3.20399 12.3504 3.3644 10.44C3.44045 9.53522 3.8422 8.68875 4.49506 8.05773C5.14792 7.42671 6.00756 7.05398 6.9144 7.00875H6.91503Z" stroke-width="2" stroke-linejoin="round"/>
<path d="M13.125 12.7563V18.2538C13.125 18.3506 13.1512 18.4456 13.2008 18.5287C13.2505 18.6118 13.3217 18.6799 13.407 18.7258C13.4923 18.7716 13.5884 18.7935 13.6851 18.7891C13.7818 18.7846 13.8755 18.7541 13.9563 18.7006L18.0794 15.9756C18.1531 15.9271 18.2136 15.861 18.2556 15.7834C18.2976 15.7058 18.3198 15.619 18.3202 15.5307C18.3205 15.4424 18.2991 15.3555 18.2577 15.2775C18.2164 15.1995 18.1564 15.133 18.0831 15.0838L13.9594 12.3113C13.8788 12.2571 13.785 12.2259 13.688 12.2209C13.591 12.216 13.4945 12.2374 13.4088 12.2831C13.3231 12.3287 13.2515 12.3968 13.2015 12.48C13.1515 12.5633 13.125 12.6585 13.125 12.7556V12.7563Z" stroke-width="2" stroke-linejoin="round"/>
</svg>
